# xmcd CD database file
#
# Track frame offsets:
#	150
#	11387
#	30592
#	48199
#	63808
#	76795
#	98147
#	117174
#	144229
#	168498
#	178508
#	201260
#	228604
#	250234
#	258156
#	275075
#	290950
#	306727
#
# Disc length: 4306 seconds
#
# Revision: 0
# Processed by: cddbd v1.5.2PL0 Copyright (c) Steve Scherf et al.
# Submitted via: CDex 1.70beta2
#
DISCID=fb10d012
DTITLE=Various Artist - Mystica (I Suoni Dell'Anima)
DYEAR=1997
DGENRE=New Age
TTITLE0=Clannad - Theme From Harry's Game
TTITLE1=Enigma - Return To Innocence
TTITLE2=The Future Sound Of London - My Kingdom
TTITLE3=Vangelis - Chariots Of Fire
TTITLE4=Michael Nyman - Big My Secret
TTITLE5=Ryuichi Sakamoto and David Silvian - Forbidden Colors
TTITLE6=Daniel Lanois - The Maker
TTITLE7=Ben Harper - Power Of The Gospel
TTITLE8=Pat Metheny - Always And Forever
TTITLE9=Ennio Morricone - Gabriel's Oboe
TTITLE10=Portishead - Glory Box
TTITLE11=Mark Isham and Tanita Tikaram - I Never Will Know
TTITLE12=Jah Wobble - Om Namah Shiva
TTITLE13=The Last Of The Mohicans - Main Title
TTITLE14=Indiani - Tor Cheney Nahana
TTITLE15=Afro Celt Sound System - Sure As Not
TTITLE16=Tempus Fugit - Ars Nova
TTITLE17=Bjork and David Arnold - Play Dead
EXTD=YEAR: 1997
EXTT0=
EXTT1=
EXTT2=
EXTT3=
EXTT4=
EXTT5=
EXTT6=
EXTT7=
EXTT8=
EXTT9=
EXTT10=
EXTT11=
EXTT12=
EXTT13=
EXTT14=
EXTT15=
EXTT16=
EXTT17=
PLAYORDER=
